HIERARCHY
ROOT Hips
{
	OFFSET 0.000000 0.000000 0.000000
	CHANNELS 6 Xposition Yposition Zposition Zrotation Xrotation Yrotation
	JOINT LHipJoint
	{
		OFFSET 0.000000 0.000000 0.000000
		CHANNELS 3 Zrotation Xrotation Yrotation
		JOINT LeftUpLeg
		{
			OFFSET 0.076937 -0.101296 0.047373
			CHANNELS 3 Zrotation Xrotation Yrotation
			JOINT LeftLeg
			{
				OFFSET 0.138181 -0.379650 0.000000
				CHANNELS 3 Zrotation Xrotation Yrotation
				JOINT LeftFoot
				{
					OFFSET 0.144621 -0.397343 0.000000
					CHANNELS 3 Zrotation Xrotation Yrotation
					JOINT LeftToeBase
					{
						OFFSET 0.008898 -0.024446 0.131094
						CHANNELS 3 Zrotation Xrotation Yrotation
						JOINT End_Site
						{
							OFFSET 0.000000 -0.000000 0.067149
							CHANNELS 3 Zrotation Xrotation Yrotation
							End Site
							{
								OFFSET 0.000000 -0.000000 0.020145
							}
						}
					}
				}
			}
		}
	}
	JOINT RHipJoint
	{
		OFFSET 0.000000 0.000000 0.000000
		CHANNELS 3 Zrotation Xrotation Yrotation
		JOINT RightUpLeg
		{
			OFFSET -0.073689 -0.101296 0.047373
			CHANNELS 3 Zrotation Xrotation Yrotation
			JOINT RightLeg
			{
				OFFSET -0.143511 -0.394292 0.000000
				CHANNELS 3 Zrotation Xrotation Yrotation
				JOINT RightFoot
				{
					OFFSET -0.144963 -0.398282 0.000000
					CHANNELS 3 Zrotation Xrotation Yrotation
					JOINT RightToeBase
					{
						OFFSET -0.009298 -0.025546 0.133386
						CHANNELS 3 Zrotation Xrotation Yrotation
						JOINT End_Site
						{
							OFFSET -0.000000 -0.000000 0.068344
							CHANNELS 3 Zrotation Xrotation Yrotation
							End Site
							{
								OFFSET -0.000000 -0.000000 0.020503
							}
						}
					}
				}
			}
		}
	}
	JOINT LowerBack
	{
		OFFSET 0.000000 0.000000 0.000000
		CHANNELS 3 Zrotation Xrotation Yrotation
		JOINT Spine
		{
			OFFSET 0.001596 0.114897 -0.010915
			CHANNELS 3 Zrotation Xrotation Yrotation
			JOINT Spine1
			{
				OFFSET 0.003202 0.115645 -0.002413
				CHANNELS 3 Zrotation Xrotation Yrotation
				JOINT Neck
				{
					OFFSET 0.000000 0.000000 0.000000
					CHANNELS 3 Zrotation Xrotation Yrotation
					JOINT Neck1
					{
						OFFSET -0.003058 0.098565 0.009709
						CHANNELS 3 Zrotation Xrotation Yrotation
						JOINT Head
						{
							OFFSET 0.005874 0.099418 -0.006997
							CHANNELS 3 Zrotation Xrotation Yrotation
							JOINT End_Site
							{
								OFFSET 0.002100 0.099931 -0.003523
								CHANNELS 3 Zrotation Xrotation Yrotation
								End Site
								{
									OFFSET 0.000630 0.029979 -0.001057
								}
							}
						}
					}
				}
				JOINT LeftShoulder
				{
					OFFSET 0.000000 0.000000 0.000000
					CHANNELS 3 Zrotation Xrotation Yrotation
					JOINT LeftArm
					{
						OFFSET 0.189788 0.067783 -0.017566
						CHANNELS 3 Zrotation Xrotation Yrotation
						JOINT LeftForeArm
						{
							OFFSET 0.281260 -0.000000 -0.000000
							CHANNELS 3 Zrotation Xrotation Yrotation
							JOINT LeftHand
							{
								OFFSET 0.196626 -0.000000 -0.000000
								CHANNELS 3 Zrotation Xrotation Yrotation
								JOINT LeftFingerBase
								{
									OFFSET 0.000000 0.000000 0.000000
									CHANNELS 3 Zrotation Xrotation Yrotation
									JOINT LeftHandIndex1
									{
										OFFSET 0.040372 -0.000000 -0.000000
										CHANNELS 3 Zrotation Xrotation Yrotation
										JOINT End_Site
										{
											OFFSET 0.032549 -0.000000 -0.000000
											CHANNELS 3 Zrotation Xrotation Yrotation
											End Site
											{
												OFFSET 0.009765 -0.000000 -0.000000
											}
										}
									}
								}
								JOINT LThumb
								{
									OFFSET 0.000000 0.000000 0.000000
									CHANNELS 3 Zrotation Xrotation Yrotation
									JOINT End_Site
									{
										OFFSET 0.033046 -0.000000 0.033046
										CHANNELS 3 Zrotation Xrotation Yrotation
										End Site
										{
											OFFSET 0.009914 -0.000000 0.009914
										}
									}
								}
							}
						}
					}
				}
				JOINT RightShoulder
				{
					OFFSET 0.000000 0.000000 0.000000
					CHANNELS 3 Zrotation Xrotation Yrotation
					JOINT RightArm
					{
						OFFSET -0.177042 0.077557 -0.022840
						CHANNELS 3 Zrotation Xrotation Yrotation
						JOINT RightForeArm
						{
							OFFSET -0.295874 -0.000000 -0.000000
							CHANNELS 3 Zrotation Xrotation Yrotation
							JOINT RightHand
							{
								OFFSET -0.194403 -0.000000 -0.000000
								CHANNELS 3 Zrotation Xrotation Yrotation
								JOINT RightFingerBase
								{
									OFFSET 0.000000 0.000000 0.000000
									CHANNELS 3 Zrotation Xrotation Yrotation
									JOINT RightHandIndex1
									{
										OFFSET -0.035138 -0.000000 -0.000000
										CHANNELS 3 Zrotation Xrotation Yrotation
										JOINT End_Site
										{
											OFFSET -0.028329 -0.000000 -0.000000
											CHANNELS 3 Zrotation Xrotation Yrotation
											End Site
											{
												OFFSET -0.008499 -0.000000 -0.000000
											}
										}
									}
								}
								JOINT RThumb
								{
									OFFSET 0.000000 0.000000 0.000000
									CHANNELS 3 Zrotation Xrotation Yrotation
									JOINT End_Site
									{
										OFFSET -0.028762 -0.000000 0.028762
										CHANNELS 3 Zrotation Xrotation Yrotation
										End Site
										{
											OFFSET -0.008628 -0.000000 0.008628
										}
									}
								}
							}
						}
					}
				}
			}
		}
	}
}
MOTION
Frames: 7
Frame Time: 0.03333333
-0.304359 1.007988 -0.256701 0.000000 0.000000 0.000000 -7.109770 -2.045698 -5.209143 -17.505511 -17.200547 -9.487403 -9.418462 45.022781 21.593887 -0.670074 2.687595 -2.979793 -0.886029 -14.890482 -6.772363 0.000000 0.000000 0.000000 -0.329565 12.061585 -9.348696 29.854034 -28.775256 20.311915 18.614220 35.953215 -20.644970 -4.428025 -4.433411 -17.691771 -0.016206 -2.336725 -0.794609 0.000000 0.000000 0.000000 1.597645 12.469959 -0.198742 2.409535 0.604282 0.020860 0.000000 0.000000 0.000000 -7.409068 -10.544742 -0.284989 6.532316 15.813638 -1.406697 5.815487 8.859671 -0.433907 0.000000 0.000000 0.000000 2.013087 5.847364 -16.906964 -74.265251 16.801894 -22.073095 7.093484 -3.895250 -57.501916 0.000000 0.000000 0.000000 19.335296 3.266629 19.004768 -7.121630 -0.130444 2.095992 0.000000 0.000000 0.000000 -13.090626 3.910630 56.859251 0.000000 0.000000 0.000000 -0.774431 -5.755738 -13.364358 72.746841 5.909124 8.016745 2.952406 2.031974 69.068628 0.000000 0.000000 0.000000 -20.047939 -3.089781 17.350668 8.648671 -0.266627 -3.524889 0.000000 0.000000 0.000000 12.006729 7.396357 -26.848951 0.000000 0.000000 0.000000
-0.280741 0.998422 -0.251213 0.000000 0.000000 0.000000 -6.246127 -2.873414 -5.420829 -17.553852 -18.868383 -10.428879 -12.132101 47.182891 24.116775 -0.344053 2.294223 -1.124942 -0.870586 -15.177663 -6.527514 0.000000 0.000000 0.000000 -1.019808 10.834636 -8.595576 29.714527 -27.693398 19.483044 18.109812 35.426990 -20.124440 -4.514904 -5.222266 -17.344023 -0.011278 -1.348801 -0.958112 0.000000 0.000000 0.000000 2.028871 11.692400 -0.179739 2.448398 0.831276 0.010325 0.000000 0.000000 0.000000 -7.532403 -10.706077 -0.300199 6.131517 15.592615 -1.352617 5.650141 8.955693 -0.433705 0.000000 0.000000 0.000000 1.584969 5.541625 -15.912286 -74.495045 17.215681 -22.519259 6.141446 -3.433952 -58.390798 0.000000 0.000000 0.000000 19.385921 3.120196 18.119395 -7.219418 -0.136544 2.164193 0.000000 0.000000 0.000000 -13.458390 4.060874 56.551827 0.000000 0.000000 0.000000 -0.705534 -5.343727 -12.403116 71.298261 7.986621 11.118452 0.894708 0.639214 71.086394 0.000000 0.000000 0.000000 -20.529093 -2.930100 16.077400 8.618614 -0.243542 -3.231129 0.000000 0.000000 0.000000 11.193389 6.882720 -26.927387 0.000000 0.000000 0.000000
-0.257618 0.999772 -0.245596 0.000000 0.000000 0.000000 -5.588373 -3.789717 -5.800448 -17.551461 -20.656866 -11.431246 -14.732749 49.053562 26.577102 -0.097375 2.190051 0.308630 -0.841396 -15.306638 -6.255410 0.000000 0.000000 0.000000 -1.703091 9.754557 -7.984155 29.645553 -26.665869 18.722803 17.825410 34.883031 -19.688562 -4.651459 -5.876648 -17.327521 -0.005383 -0.548856 -1.123877 0.000000 0.000000 0.000000 2.448377 10.841764 -0.152182 2.485511 1.041983 0.000418 0.000000 0.000000 0.000000 -7.712477 -10.799131 -0.308705 5.806024 15.413464 -1.309960 5.547768 9.046750 -0.435662 0.000000 0.000000 0.000000 1.204472 5.326789 -15.214165 -74.599599 17.704395 -23.108770 5.361950 -3.049432 -59.230915 0.000000 0.000000 0.000000 19.427589 2.991747 17.347331 -7.320993 -0.141381 2.209670 0.000000 0.000000 0.000000 -13.852576 4.215505 56.290071 0.000000 0.000000 0.000000 -0.726262 -5.023250 -11.697265 69.863928 9.921343 14.167981 -0.860557 -0.632257 72.609451 0.000000 0.000000 0.000000 -20.955377 -2.771056 14.902181 8.593379 -0.225759 -3.004135 0.000000 0.000000 0.000000 10.410194 6.372361 -27.144118 0.000000 0.000000 0.000000
-0.234447 1.003569 -0.237187 0.000000 0.000000 0.000000 -5.112991 -4.864065 -6.389887 -17.517643 -22.534865 -12.479919 -17.234590 50.751368 29.018579 0.056049 2.524141 1.381045 -0.806001 -15.346622 -5.976967 0.000000 0.000000 0.000000 -2.427521 8.833377 -7.531934 29.668453 -25.722257 18.056116 17.823318 34.262563 -19.322644 -4.871813 -6.378646 -17.768082 0.002824 0.244833 -1.321604 0.000000 0.000000 0.000000 2.889580 9.879856 -0.113764 2.524391 1.248363 -0.009394 0.000000 0.000000 0.000000 -7.951529 -10.853820 -0.313382 5.539981 15.290641 -1.278537 5.482272 9.119726 -0.437854 0.000000 0.000000 0.000000 0.914452 5.222188 -14.863334 -74.484199 18.340641 -23.978019 4.881351 -2.823129 -60.065877 0.000000 0.000000 0.000000 19.374848 2.849656 16.580000 -7.477761 -0.144358 2.208773 0.000000 0.000000 0.000000 -14.288839 4.408954 55.855508 0.000000 0.000000 0.000000 -0.874566 -4.810151 -11.301584 68.642964 11.784693 17.192743 -2.469460 -1.847210 73.590835 0.000000 0.000000 0.000000 -21.447767 -2.632909 13.837307 8.672080 -0.213333 -2.813003 0.000000 0.000000 0.000000 9.694500 5.895854 -27.463633 0.000000 0.000000 0.000000
-0.213973 1.005396 -0.226110 0.000000 0.000000 0.000000 -4.874261 -5.890113 -7.058920 -17.385794 -24.523729 -13.567382 -19.827253 52.030468 31.369733 0.187632 2.674905 2.256469 -0.761397 -15.255280 -5.680911 0.000000 0.000000 0.000000 -3.157181 7.878996 -7.077251 29.660896 -24.811742 17.404046 17.951445 33.757806 -19.075627 -5.149598 -6.963469 -18.343308 0.010153 0.794896 -1.463525 0.000000 0.000000 0.000000 3.128552 8.860202 -0.068987 2.562984 1.422911 -0.017755 0.000000 0.000000 0.000000 -8.204356 -10.918044 -0.319257 5.371032 15.232904 -1.261128 5.444823 9.204920 -0.442087 0.000000 0.000000 0.000000 0.644918 5.133141 -14.565776 -74.229728 19.085392 -25.050800 4.681133 -2.744588 -60.748658 0.000000 0.000000 0.000000 19.226061 2.740303 16.076049 -7.610069 -0.144045 2.165560 0.000000 0.000000 0.000000 -14.726692 4.586780 55.562616 0.000000 0.000000 0.000000 -1.034779 -4.621404 -10.964130 67.458209 13.389537 19.942651 -3.869350 -2.932102 74.299060 0.000000 0.000000 0.000000 -21.792063 -2.465472 12.756809 8.655911 -0.197574 -2.610166 0.000000 0.000000 0.000000 8.878955 5.358204 -27.844967 0.000000 0.000000 0.000000
-0.195593 0.993306 -0.217035 0.000000 0.000000 0.000000 -4.812504 -6.969213 -7.859720 -17.223184 -26.710335 -14.757556 -22.693006 53.102265 33.857963 0.294815 2.759427 2.956968 -0.709482 -15.072750 -5.358900 0.000000 0.000000 0.000000 -3.994480 6.841246 -6.622394 29.709100 -23.889115 16.761816 18.257222 33.302565 -18.924561 -5.508928 -7.608722 -19.149499 0.016216 1.197894 -1.551098 0.000000 0.000000 0.000000 3.191998 7.702361 -0.018874 2.594052 1.587438 -0.025782 0.000000 0.000000 0.000000 -8.507656 -10.967016 -0.323661 5.313007 15.246035 -1.258799 5.459525 9.299890 -0.449363 0.000000 0.000000 0.000000 0.374031 5.076571 -14.365159 -73.697003 20.015700 -26.500587 4.845778 -2.887469 -61.559776 0.000000 0.000000 0.000000 18.981731 2.639359 15.691619 -7.770875 -0.146870 2.162214 0.000000 0.000000 0.000000 -15.202471 4.777444 55.282584 0.000000 0.000000 0.000000 -1.206443 -4.462494 -10.697747 66.455769 14.843666 22.493592 -5.029880 -3.844576 74.770025 0.000000 0.000000 0.000000 -22.154517 -2.300390 11.710513 8.602928 -0.183400 -2.437940 0.000000 0.000000 0.000000 8.028590 4.791219 -28.398254 0.000000 0.000000 0.000000
-0.178904 0.989493 -0.208990 0.000000 0.000000 0.000000 -4.763658 -7.864643 -8.519027 -17.051601 -28.739162 -15.854861 -25.024474 53.489359 35.612674 0.408097 2.883395 3.724564 -0.640464 -14.665404 -4.973987 0.000000 0.000000 0.000000 -4.686144 5.818275 -6.147879 29.739125 -23.075579 16.191821 18.510645 33.025820 -18.857119 -5.839534 -8.162574 -19.895056 0.022029 1.531323 -1.648228 0.000000 0.000000 0.000000 3.185826 6.639735 0.025717 2.594150 1.746354 -0.033788 0.000000 0.000000 0.000000 -8.761565 -11.068758 -0.334249 5.294192 15.244024 -1.257356 5.434148 9.423421 -0.456749 0.000000 0.000000 0.000000 0.143266 4.958256 -13.997571 -73.213723 20.949974 -27.952632 5.017822 -3.010656 -61.906187 0.000000 0.000000 0.000000 18.622908 2.550150 15.461395 -7.833934 -0.141884 2.071958 0.000000 0.000000 0.000000 -15.608138 4.927977 55.138561 0.000000 0.000000 0.000000 -1.333570 -4.263047 -10.311743 65.264559 16.320692 25.245531 -6.203878 -4.761617 74.991873 0.000000 0.000000 0.000000 -22.411456 -2.119340 10.668130 8.552162 -0.172431 -2.305827 0.000000 0.000000 0.000000 7.179267 4.231263 -29.014978 0.000000 0.000000 0.000000
